<?xml version="1.0" encoding="utf-8"?>
<!-- Generator: Adobe Illustrator 18.1.0, SVG Export Plug-In . SVG Version: 6.00 Build 0)  -->
<!DOCTYPE svg PUBLIC "-//W3C//DTD SVG 1.1//EN" "http://www.w3.org/Graphics/SVG/1.1/DTD/svg11.dtd">
<svg version="1.1" id="Layer_1" xmlns="http://www.w3.org/2000/svg" xmlns:xlink="http://www.w3.org/1999/xlink" x="0px" y="0px"
	 viewBox="-257 376 96 42" enable-background="new -257 376 96 42" xml:space="preserve">
<g>
	<g>
		<g>
			<path fill="#009BDE" d="M-235.1,414c-7.4-2.2-12.7-9-12.7-17.1c0-8.1,5.5-15,12.9-17.1c0.8-0.2,0.6-0.7-0.4-0.7
				c-9.9,0-18,8-18,17.9c0,9.9,8.1,17.9,18,17.9C-234.3,414.8-234.3,414.2-235.1,414z"/>
			<path fill="#009BDE" d="M-244.4,401.1c0-0.5-0.1-1-0.1-1.5c0-7.8,6.3-14.2,14.2-14.2c7.4,0,9.6,3.3,9.9,3.1
				c0.3-0.2-2.7-6.8-11.4-6.8c-7.8,0-14.2,6.3-14.2,14.2c0,1.8,0.3,3.5,1,5.1C-244.7,401.7-244.3,401.7-244.4,401.1z"/>
			<path fill="#009BDE" d="M-238.5,390.9c3.7-1.6,8.3-1.7,12.9-0.1c3.1,1.1,4.8,2.6,5,2.5c0.2-0.1-1.8-3.3-5.4-4.7
				c-4.4-1.7-9.2-0.8-12.6,1.9C-239.1,390.9-238.9,391.1-238.5,390.9z"/>
		</g>
	</g>
	<g>
		<circle fill="#F38B00" cx="-167.5" cy="397.5" r="1.9"/>
		<g>
			<path fill="#F38B00" d="M-226.5,405.2h-3.6l3.1-6.3h0L-226.5,405.2L-226.5,405.2z M-226.4,408l0.2,2.5h3.9l-1.3-14.5h-5.9
				l-7.4,14.5h4l1.2-2.5H-226.4L-226.4,408z"/>
			<polygon fill="#F38B00" points="-216.7,404.2 -216.2,404.2 -213.3,400.4 -209.7,400.4 -213.6,405.2 -211.2,410.5 -215.1,410.5 
				-216.6,406.4 -217.2,406.4 -218.1,410.5 -221.4,410.5 -218.3,396 -215,396 -216.7,404.2 			"/>
			<path fill="#F38B00" d="M-205.5,406.3c1.1,0,1.8,0.1,1.6,0.9c-0.2,1.1-0.7,1.2-2.1,1.2c-0.5,0-1.4,0-1.2-1.1
				C-206.9,406.4-206.3,406.3-205.5,406.3L-205.5,406.3z M-204.5,410.5h3.3l1.3-6.3c0.7-3.5-0.6-3.9-4-3.9c-2.4,0-4.7,0-5.3,3.1h3.3
				c0.2-0.9,0.7-1.1,1.6-1.1c1.4,0,1.4,0.6,1.2,1.5l-0.3,1.6h-0.2c-0.1-1.2-1.6-1.1-2.5-1.1c-2.4,0-3.8,0.8-4.3,3.2
				c-0.5,2.6,0.7,3.1,3,3.1c1.2,0,2.7-0.2,3.3-1.6h0.1L-204.5,410.5L-204.5,410.5z"/>
			<path fill="#F38B00" d="M-194.5,400.4l-0.3,1.4h0.1c0.7-1.2,2-1.5,3.1-1.5c1.4,0,2.8,0.2,2.6,2h0.2c0.5-1.4,2-2,3.2-2
				c2.3,0,3.3,1,2.8,3.3l-1.5,6.9h-3.3l1.2-5.9c0.2-1.1,0.4-1.8-0.9-1.8c-1.3,0-1.7,0.9-2,1.9l-1.2,5.7h-3.3l1.3-6.1
				c0.2-0.9,0.2-1.6-0.9-1.6c-1.4,0-1.8,0.7-2,1.9l-1.2,5.7h-3.3l2.2-10.1H-194.5L-194.5,400.4z"/>
			<path fill="#F38B00" d="M-177.5,406.3c1.1,0,1.8,0.1,1.6,0.9c-0.2,1.1-0.7,1.2-2.1,1.2c-0.5,0-1.4,0-1.2-1.1
				C-179,406.4-178.3,406.3-177.5,406.3L-177.5,406.3z M-176.6,410.5h3.3l1.3-6.3c0.7-3.5-0.6-3.9-4-3.9c-2.4,0-4.7,0-5.3,3.1h3.3
				c0.2-0.9,0.8-1.1,1.6-1.1c1.4,0,1.4,0.6,1.2,1.5l-0.3,1.6h-0.2c-0.1-1.2-1.6-1.1-2.5-1.1c-2.4,0-3.8,0.8-4.3,3.2
				c-0.5,2.6,0.7,3.1,3,3.1c1.2,0,2.7-0.2,3.3-1.6h0.1L-176.6,410.5L-176.6,410.5z"/>
			<path fill="#F38B00" d="M-168.5,410.5h-3.3l2.1-10.1h3.3L-168.5,410.5L-168.5,410.5z"/>
		</g>
	</g>
</g>
</svg>
