<?xml version="1.0" encoding="utf-8"?>
<!-- Generator: Adobe Illustrator 16.0.3, SVG Export Plug-In . SVG Version: 6.00 Build 0)  -->
<!DOCTYPE svg PUBLIC "-//W3C//DTD SVG 1.1//EN" "http://www.w3.org/Graphics/SVG/1.1/DTD/svg11.dtd">
<svg version="1.1" id="Layer_1" xmlns="http://www.w3.org/2000/svg" xmlns:xlink="http://www.w3.org/1999/xlink" x="0px" y="0px"
	 width="72px" height="72px" viewBox="0 0 72 72" enable-background="new 0 0 72 72" xml:space="preserve">
<g>
	
		<linearGradient id="SVGID_1_" gradientUnits="userSpaceOnUse" x1="306" y1="-356.9995" x2="306" y2="-289" gradientTransform="matrix(1 0 0 -1 -270 -287)">
		<stop  offset="0" style="stop-color:#7FA20E"/>
		<stop  offset="1" style="stop-color:#9DC718"/>
	</linearGradient>
	<circle fill="url(#SVGID_1_)" cx="36" cy="36" r="34"/>
	<g>
		<g opacity="0.18">
			<rect x="19" y="24.001" fill="#020202" width="4" height="4"/>
			<rect x="25" y="24.001" fill="#020202" width="4" height="4"/>
			<rect x="31" y="24.001" fill="#020202" width="4" height="4"/>
			<rect x="37" y="24.001" fill="#020202" width="4" height="4"/>
			<rect x="43" y="24.001" fill="#020202" width="4" height="4"/>
			<rect x="49" y="24.001" fill="#020202" width="4" height="4"/>
			<rect x="19" y="30.001" fill="#020202" width="4" height="4"/>
			<rect x="25" y="30.001" fill="#020202" width="4" height="4"/>
			<rect x="31" y="30.001" fill="#020202" width="4" height="4"/>
			<rect x="37" y="30.001" fill="#020202" width="4" height="4"/>
			<rect x="49" y="30.001" fill="#020202" width="4" height="4"/>
			<rect x="19" y="36" fill="#020202" width="4" height="4"/>
			<rect x="25" y="36" fill="#020202" width="4" height="4"/>
			<rect x="31" y="36" fill="#020202" width="4" height="4"/>
			<rect x="37" y="36" fill="#020202" width="4" height="4"/>
			<rect x="43" y="36" fill="#020202" width="4" height="4"/>
			<rect x="49" y="36" fill="#020202" width="4" height="4"/>
			<rect x="19" y="42" fill="#020202" width="4" height="4"/>
			<rect x="25" y="42" fill="#020202" width="4" height="4"/>
			<rect x="31" y="42" fill="#020202" width="4" height="4"/>
			<rect x="37" y="42" fill="#020202" width="4" height="4"/>
			<rect x="43" y="42" fill="#020202" width="4" height="4"/>
			<rect x="49" y="42" fill="#020202" width="4" height="4"/>
		</g>
		<g>
			<g>
				<rect x="19" y="25.001" fill="#FFFFFF" width="4" height="4"/>
				<rect x="25" y="25.001" fill="#FFFFFF" width="4" height="4"/>
				<rect x="31" y="25.001" fill="#FFFFFF" width="4" height="4"/>
				<rect x="37" y="25.001" fill="#FFFFFF" width="4" height="4"/>
				<rect x="43" y="25.001" fill="#FFFFFF" width="4" height="4"/>
				<rect x="49" y="25.001" fill="#FFFFFF" width="4" height="4"/>
				<rect x="19" y="31.001" fill="#FFFFFF" width="4" height="4"/>
				<rect x="25" y="31.001" fill="#FFFFFF" width="4" height="4"/>
				<rect x="31" y="31.001" fill="#FFFFFF" width="4" height="4"/>
				<rect x="37" y="31.001" fill="#FFFFFF" width="4" height="4"/>
				<rect x="49" y="31.001" fill="#FFFFFF" width="4" height="4"/>
				<rect x="19" y="37" fill="#FFFFFF" width="4" height="4"/>
				<rect x="25" y="37" fill="#FFFFFF" width="4" height="4"/>
				<rect x="31" y="37" fill="#FFFFFF" width="4" height="4"/>
				<rect x="37" y="37" fill="#FFFFFF" width="4" height="4"/>
				<rect x="43" y="37" fill="#FFFFFF" width="4" height="4"/>
				<rect x="49" y="37" fill="#FFFFFF" width="4" height="4"/>
				<rect x="19" y="43" fill="#FFFFFF" width="4" height="4"/>
				<rect x="25" y="43" fill="#FFFFFF" width="4" height="4"/>
				<rect x="31" y="43" fill="#FFFFFF" width="4" height="4"/>
				<rect x="37" y="43" fill="#FFFFFF" width="4" height="4"/>
				<rect x="43" y="43" fill="#FFFFFF" width="4" height="4"/>
				<rect x="49" y="43" fill="#FFFFFF" width="4" height="4"/>
			</g>
		</g>
	</g>
</g>
</svg>
