<?xml version="1.0" encoding="utf-8"?>
<!-- Generator: Adobe Illustrator 16.0.3, SVG Export Plug-In . SVG Version: 6.00 Build 0)  -->
<!DOCTYPE svg PUBLIC "-//W3C//DTD SVG 1.1//EN" "http://www.w3.org/Graphics/SVG/1.1/DTD/svg11.dtd">
<svg version="1.1" id="Layer_1" xmlns="http://www.w3.org/2000/svg" xmlns:xlink="http://www.w3.org/1999/xlink" x="0px" y="0px"
	 width="72px" height="72px" viewBox="0 0 72 72" enable-background="new 0 0 72 72" xml:space="preserve">
<g>
	<g>
		
			<linearGradient id="SVGID_1_" gradientUnits="userSpaceOnUse" x1="306" y1="-356.9995" x2="306" y2="-289" gradientTransform="matrix(1 0 0 -1 -270 -287)">
			<stop  offset="0" style="stop-color:#F89821"/>
			<stop  offset="1" style="stop-color:#FFA940"/>
		</linearGradient>
		<circle fill="url(#SVGID_1_)" cx="36" cy="36" r="34"/>
	</g>
	<g>
		<g opacity="0.18">
			<path fill="#020202" d="M24.6,48v-9.518c0-0.549-0.45-1-1-1H20c-0.55,0-1,0.451-1,1V48"/>
			<path fill="#020202" d="M33.4,48V30.61c0-0.55-0.45-1-1-1h-3.6c-0.55,0-1,0.45-1,1V48"/>
			<path fill="#020202" d="M42.199,48V20.231c0-0.55-0.449-1-1-1h-3.6c-0.55,0-1,0.45-1,1V48"/>
			<path fill="#020202" d="M51,48V23.434c0-0.55-0.451-1-1-1h-3.6c-0.551,0-1,0.45-1,1V48"/>
		</g>
		<g>
			<g>
				<g>
					<path fill="#FFFFFF" d="M24.6,49v-9.518c0-0.549-0.45-1-1-1H20c-0.55,0-1,0.451-1,1V49"/>
				</g>
				<g>
					<path fill="#FFFFFF" d="M33.4,49V31.61c0-0.55-0.45-1-1-1h-3.6c-0.55,0-1,0.45-1,1V49"/>
				</g>
				<g>
					<path fill="#FFFFFF" d="M42.199,49V21.231c0-0.55-0.449-1-1-1h-3.6c-0.55,0-1,0.45-1,1V49"/>
				</g>
				<g>
					<path fill="#FFFFFF" d="M51,49V24.434c0-0.55-0.451-1-1-1h-3.6c-0.551,0-1,0.45-1,1V49"/>
				</g>
			</g>
		</g>
	</g>
</g>
</svg>
