<?xml version="1.0" encoding="utf-8"?>
<!-- Generator: Adobe Illustrator 16.0.3, SVG Export Plug-In . SVG Version: 6.00 Build 0)  -->
<!DOCTYPE svg PUBLIC "-//W3C//DTD SVG 1.1//EN" "http://www.w3.org/Graphics/SVG/1.1/DTD/svg11.dtd">
<svg version="1.1" id="Layer_1" xmlns="http://www.w3.org/2000/svg" xmlns:xlink="http://www.w3.org/1999/xlink" x="0px" y="0px"
	 width="72px" height="72px" viewBox="0 0 72 72" enable-background="new 0 0 72 72" xml:space="preserve">
<g>
	
		<linearGradient id="SVGID_1_" gradientUnits="userSpaceOnUse" x1="306" y1="-356.9995" x2="306" y2="-289" gradientTransform="matrix(1 0 0 -1 -270 -287)">
		<stop  offset="0" style="stop-color:#1096D4"/>
		<stop  offset="1" style="stop-color:#26AEED"/>
	</linearGradient>
	<circle fill="url(#SVGID_1_)" cx="36" cy="36" r="34"/>
	<g>
		<g opacity="0.18">
			<circle fill="#020202" cx="44.725" cy="49.447" r="4.551"/>
			<circle fill="#020202" cx="44.725" cy="19.225" r="4.55"/>
			<circle fill="#020202" cx="18.551" cy="34.336" r="4.551"/>
			<polygon fill="#020202" points="39.365,38.166 36.875,33.854 35.143,34.854 37.633,39.166 35.9,40.166 41.5,43.863 
				41.098,37.166 			"/>
			<polygon fill="#020202" points="37.634,29.507 35.144,33.821 36.875,34.821 39.366,30.507 41.098,31.508 41.5,24.811 
				35.9,28.506 			"/>
			<polygon fill="#020202" points="31.001,35.336 35.98,35.336 35.98,33.336 31,33.337 31,31.336 25.002,34.338 31,37.336 			"/>
		</g>
		<g>
			<g>
				<circle fill="#FFFFFF" cx="44.725" cy="50.447" r="4.551"/>
				<circle fill="#FFFFFF" cx="44.725" cy="20.225" r="4.55"/>
				<circle fill="#FFFFFF" cx="18.551" cy="35.336" r="4.551"/>
				<polygon fill="#FFFFFF" points="39.365,39.166 36.875,34.854 35.143,35.854 37.633,40.166 35.9,41.166 41.5,44.863 
					41.098,38.166 				"/>
				<polygon fill="#FFFFFF" points="37.634,30.507 35.144,34.821 36.875,35.82 39.366,31.507 41.098,32.508 41.5,25.811 
					35.9,29.506 				"/>
				<polygon fill="#FFFFFF" points="31.001,36.336 35.98,36.336 35.98,34.336 31,34.337 31,32.336 25.002,35.338 31,38.336 				"/>
			</g>
		</g>
	</g>
</g>
</svg>
