<?xml version="1.0" encoding="utf-8"?>
<!-- Generator: Adobe Illustrator 16.0.3, SVG Export Plug-In . SVG Version: 6.00 Build 0)  -->
<!DOCTYPE svg PUBLIC "-//W3C//DTD SVG 1.1//EN" "http://www.w3.org/Graphics/SVG/1.1/DTD/svg11.dtd">
<svg version="1.1" id="Layer_1" xmlns="http://www.w3.org/2000/svg" xmlns:xlink="http://www.w3.org/1999/xlink" x="0px" y="0px"
	 width="72px" height="72px" viewBox="0 0 72 72" enable-background="new 0 0 72 72" xml:space="preserve">
<g>
	<g>
		
			<linearGradient id="SVGID_1_" gradientUnits="userSpaceOnUse" x1="306" y1="-356.9995" x2="306" y2="-289" gradientTransform="matrix(1 0 0 -1 -270 -287)">
			<stop  offset="0" style="stop-color:#1096D4"/>
			<stop  offset="1" style="stop-color:#26AEED"/>
		</linearGradient>
		<circle fill="url(#SVGID_1_)" cx="36" cy="36" r="34"/>
	</g>
	<g>
		<g opacity="0.18">
			<path fill="#020202" d="M52,24.001v18H20v-18H52 M53,22.001H19c-0.549,0-1,0.451-1,1v20c0,0.551,0.451,1,1,1h34
				c0.551,0,1-0.449,1-1v-20C54,22.452,53.551,22.001,53,22.001L53,22.001z"/>
			<rect x="22" y="35" fill="#020202" width="3" height="5"/>
			<rect x="27" y="31.001" fill="#020202" width="3" height="9"/>
			<rect x="32" y="32.001" fill="#020202" width="3" height="8"/>
			<rect x="37" y="28.001" fill="#020202" width="3" height="12"/>
			<rect x="42" y="30.001" fill="#020202" width="3" height="10"/>
			<rect x="47" y="26.001" fill="#020202" width="3" height="14"/>
			<rect x="26" y="47" fill="#020202" width="20" height="1"/>
			<path fill="#020202" d="M26,47c1-1,1-4,1-4h18c0,1,0,3,1,4H26z"/>
		</g>
		<g>
			<g>
				<path fill="#FFFFFF" d="M52,25.001v18H20v-18H52 M53,23.001H19c-0.549,0-1,0.451-1,1v20c0,0.551,0.451,1,1,1h34
					c0.551,0,1-0.449,1-1v-20C54,23.452,53.551,23.001,53,23.001L53,23.001z"/>
				<rect x="22" y="36" fill="#FFFFFF" width="3" height="5"/>
				<rect x="27" y="32.001" fill="#FFFFFF" width="3" height="9"/>
				<rect x="32" y="33.001" fill="#FFFFFF" width="3" height="8"/>
				<rect x="37" y="29.001" fill="#FFFFFF" width="3" height="12"/>
				<rect x="42" y="31.001" fill="#FFFFFF" width="3" height="10"/>
				<rect x="47" y="27.001" fill="#FFFFFF" width="3" height="14"/>
				<rect x="26" y="48" fill="#FFFFFF" width="20" height="1"/>
				<path fill="#FFFFFF" d="M26,48c1-1,1-4,1-4h18c0,1,0,3,1,4H26z"/>
			</g>
		</g>
	</g>
</g>
</svg>
