<?xml version="1.0" encoding="utf-8"?>
<!-- Generator: Adobe Illustrator 16.0.3, SVG Export Plug-In . SVG Version: 6.00 Build 0)  -->
<!DOCTYPE svg PUBLIC "-//W3C//DTD SVG 1.1//EN" "http://www.w3.org/Graphics/SVG/1.1/DTD/svg11.dtd">
<svg version="1.1" id="Layer_1" xmlns="http://www.w3.org/2000/svg" xmlns:xlink="http://www.w3.org/1999/xlink" x="0px" y="0px"
	 width="128px" height="128px" viewBox="0 0 128 128" enable-background="new 0 0 128 128" xml:space="preserve">
<g>
	<polygon fill-rule="evenodd" clip-rule="evenodd" fill="#B5B5B5" points="59,64 48,52 48,59 27,59 27,52 16,64 27,76 27,69 48,69 
		48,76 	"/>
	<path fill="#B5B5B5" d="M44.465,50.543"/>
	<path fill="#B5B5B5" d="M39.143,33v14.628c0,3.589-2.274,4.701-4.144,4.701v2.598h3.338C40.512,54.724,44,53.56,44,48.81
		l-0.029-10.518H108v51.416H43.971L44,79.188c0-4.75-3.488-5.912-5.662-6.115H35v2.598c1.87,0,4.144,1.111,4.144,4.701V95H113V33
		H39.143z"/>
	<g>
		<path fill="#B5B5B5" d="M59.14,76l6.649-24h6.615l6.516,24h-5.287l-1.33-5.32h-6.848L64.093,76H59.14z M68.814,56.621h-0.066
			l-2.295,10.37h4.786L68.814,56.621z"/>
		<path fill="#B5B5B5" d="M80.536,52h9.041c4.589,0,6.382,2.792,6.382,7.179c0,2.727-0.797,7.049-6.682,7.049h-3.724V76h-5.018V52z
			 M85.554,62.536h2.794c1.494,0,2.525-1.627,2.525-3.224c0-1.961-0.531-3.623-2.791-3.623h-2.528V62.536z"/>
		<path fill="#B5B5B5" d="M97.865,76V52h5.018v24H97.865z"/>
	</g>
	<rect x="42.924" y="36.195" fill="#B5B5B5" width="66.295" height="6.804"/>
	<rect x="42.924" y="85" fill="#B5B5B5" width="66.295" height="6.805"/>
</g>
</svg>
