<?xml version="1.0" encoding="utf-8"?>
<!-- Generator: Adobe Illustrator 16.0.3, SVG Export Plug-In . SVG Version: 6.00 Build 0)  -->
<!DOCTYPE svg PUBLIC "-//W3C//DTD SVG 1.1//EN" "http://www.w3.org/Graphics/SVG/1.1/DTD/svg11.dtd">
<svg version="1.1" id="Layer_1" xmlns="http://www.w3.org/2000/svg" xmlns:xlink="http://www.w3.org/1999/xlink" x="0px" y="0px"
	 width="128px" height="128px" viewBox="0 0 128 128" enable-background="new 0 0 128 128" xml:space="preserve">
<g>
	<g opacity="0.25">
		<path fill="#020202" d="M71.652,72.75c2.244-8.146,0.665-16.437-3.651-22.974c11.29,5.376,17.448,18.222,14.011,30.696
			c-3.859,13.989-18.327,22.21-32.323,18.35c-4.169-1.146-7.824-3.246-10.801-5.99C53.277,95.792,67.693,87.121,71.652,72.75z"/>
		<path fill="#020202" d="M98.303,45.904C96.097,33.97,85.59,25,73.184,25C63.898,25,55.509,29.956,51,37.868
			c-5.752-0.392-11.178,2.248-14.42,6.834c-10.369,0.735-18.571,9.405-18.571,19.956c0,10.664,8.384,19.408,18.91,19.975v-8.346
			c-5.932-0.553-10.59-5.557-10.59-11.629c0-6.441,5.24-11.683,11.683-11.683c0.131,0,0.252,0.015,0.387,0.021l3.073,0.181
			l1.208-2.492c1.362-2.793,4.128-4.528,7.22-4.528c0.761,0,1.535,0.114,2.283,0.334l3.616,1.072l1.426-3.491
			c2.66-6.529,8.924-10.75,15.958-10.75c9.036,0,16.589,7.066,17.184,16.09l0.207,3.164l3.108,0.64
			c5.4,1.106,9.323,5.917,9.323,11.443c0,5.365-3.715,10.074-8.889,11.342l-2.781,0.018v8.326l3.699-0.023l0.412-0.087
			c9.195-1.933,15.882-10.165,15.882-19.575C111.329,56.235,106.008,48.779,98.303,45.904z"/>
	</g>
	<g>
		<g>
			<path fill="#FFFFFF" d="M71.652,73.75c2.244-8.146,0.665-16.437-3.651-22.974c11.29,5.376,17.448,18.222,14.011,30.696
				c-3.859,13.989-18.327,22.21-32.323,18.35c-4.169-1.146-7.824-3.246-10.801-5.99C53.277,96.792,67.693,88.121,71.652,73.75z"/>
			<g>
				<path fill="#FFFFFF" d="M98.303,46.904C96.097,34.97,85.59,26,73.184,26C63.898,26,55.509,30.956,51,38.868
					c-5.752-0.392-11.178,2.248-14.42,6.834c-10.369,0.735-18.571,9.405-18.571,19.956c0,10.664,8.384,19.408,18.91,19.975v-8.346
					c-5.932-0.553-10.59-5.557-10.59-11.629c0-6.441,5.24-11.683,11.683-11.683c0.131,0,0.252,0.015,0.387,0.021l3.073,0.181
					l1.208-2.492c1.362-2.793,4.128-4.528,7.22-4.528c0.761,0,1.535,0.114,2.283,0.334l3.616,1.072l1.426-3.491
					c2.66-6.529,8.924-10.75,15.958-10.75c9.036,0,16.589,7.066,17.184,16.09l0.207,3.164l3.108,0.64
					c5.4,1.106,9.323,5.917,9.323,11.443c0,5.365-3.715,10.074-8.889,11.342l-2.781,0.018v8.326l3.699-0.023l0.412-0.087
					c9.195-1.933,15.882-10.165,15.882-19.575C111.329,57.235,106.008,49.779,98.303,46.904z"/>
			</g>
		</g>
	</g>
</g>
</svg>
