<?xml version="1.0" encoding="utf-8"?>
<!-- Generator: Adobe Illustrator 16.2.1, SVG Export Plug-In . SVG Version: 6.00 Build 0)  -->
<!DOCTYPE svg PUBLIC "-//W3C//DTD SVG 1.1//EN" "http://www.w3.org/Graphics/SVG/1.1/DTD/svg11.dtd">
<svg version="1.1" id="Layer_1" xmlns="http://www.w3.org/2000/svg" xmlns:xlink="http://www.w3.org/1999/xlink" x="0px" y="0px"
	 width="128px" height="128px" viewBox="0 0 128 128" enable-background="new 0 0 128 128" xml:space="preserve">
<g>
	<path fill="#FFFFFF" d="M16,24v50.092h7.477c2.242,0,3.739,1.496,3.737,3.74v4.484h2.244l3.737-3.736
		c2.243-2.244,4.487-4.488,7.478-4.488h41.203V24H16z M77,69H42.167c-5.156,0-8.637,3.338-11.176,5.877l-0.38,0.381
		c-0.404-1.463-1.159-2.779-2.22-3.838c-1.652-1.652-3.928-2.42-6.41-2.42H21V29h56V69z"/>
	<path fill="#FFFFFF" d="M85.09,54v22.336c0,0.822-0.672,1.496-1.496,1.496H55.931V96h21.547h12.844
		c2.561,0,4.477,2.146,6.395,4.066l3.936,3.934h2.384l-0.002-4.574c0-1.918,1.278-3.426,3.196-3.426h5.775V54H85.09z"/>
</g>
</svg>
