<?xml version="1.0" encoding="utf-8"?>
<!-- Generator: Adobe Illustrator 16.0.3, SVG Export Plug-In . SVG Version: 6.00 Build 0)  -->
<!DOCTYPE svg PUBLIC "-//W3C//DTD SVG 1.1//EN" "http://www.w3.org/Graphics/SVG/1.1/DTD/svg11.dtd">
<svg version="1.1" id="Layer_1" xmlns="http://www.w3.org/2000/svg" xmlns:xlink="http://www.w3.org/1999/xlink" x="0px" y="0px"
	 width="128px" height="128px" viewBox="0 0 128 128" enable-background="new 0 0 128 128" xml:space="preserve">
<g>
	<g opacity="0.25">
		<path fill="#020202" d="M79.689,62.973c2.245-8.145,0.666-16.436-3.65-22.973c11.289,5.376,17.447,18.222,14.011,30.697
			c-3.859,13.989-18.327,22.21-32.323,18.35c-4.169-1.147-7.824-3.247-10.801-5.99C61.314,86.016,75.731,77.344,79.689,62.973z"/>
		<path fill="#020202" d="M65,34c16.543,0,30,13.458,30,30c0,16.542-13.457,30-30,30c-16.542,0-30-13.459-30-30
			C35,47.458,48.458,34,65,34 M65,26c-20.987,0-38,17.013-38,38c0,20.987,17.013,38,38,38c20.988,0,38-17.014,38-38
			C103,43.012,85.988,26,65,26L65,26z"/>
		<polygon fill="#020202" points="60,19 59,33 71,33 70,19 		"/>
		<polygon fill="#020202" points="38.17,27.528 46.831,22.528 54.697,34.152 44.304,40.152 		"/>
		<polygon fill="#020202" points="23.529,45.83 28.529,37.169 41.154,43.303 35.153,53.695 		"/>
		<polygon fill="#020202" points="20,69 20,59 34,57.999 34,70 		"/>
		<polygon fill="#020202" points="28.529,90.83 23.529,82.17 35.153,74.303 41.153,84.695 		"/>
		<polygon fill="#020202" points="46.831,105.471 38.17,100.471 44.302,87.846 54.696,93.847 		"/>
		<polygon fill="#020202" points="70,109 60,109 58.999,95 71,95 		"/>
		<polygon fill="#020202" points="91.83,100.471 83.17,105.471 75.303,93.848 85.695,87.848 		"/>
		<polygon fill="#020202" points="106.471,82.17 101.471,90.83 88.846,84.697 94.848,74.305 		"/>
		<polygon fill="#020202" points="110,59 110,69 96,70.002 96,58 		"/>
		<polygon fill="#020202" points="101.471,37.17 106.471,45.83 94.848,53.698 88.848,43.304 		"/>
		<polygon fill="#020202" points="83.17,22.529 91.83,27.529 85.699,40.154 75.305,34.153 		"/>
	</g>
	<g>
		<g>
			<path fill="#FFFFFF" d="M79.689,63.973c2.245-8.145,0.666-16.436-3.65-22.973c11.289,5.376,17.447,18.222,14.011,30.697
				c-3.859,13.989-18.327,22.21-32.323,18.35c-4.169-1.147-7.824-3.247-10.801-5.99C61.314,87.016,75.731,78.344,79.689,63.973z"/>
			<path fill="#FFFFFF" d="M65,35c16.543,0,30,13.458,30,30c0,16.542-13.457,30-30,30c-16.542,0-30-13.459-30-30
				C35,48.458,48.458,35,65,35 M65,27c-20.987,0-38,17.013-38,38c0,20.987,17.013,38,38,38c20.988,0,38-17.014,38-38
				C103,44.012,85.988,27,65,27L65,27z"/>
			<polygon fill="#FFFFFF" points="60,20 59,34 71,34 70,20 			"/>
			<polygon fill="#FFFFFF" points="38.17,28.528 46.831,23.528 54.697,35.152 44.304,41.152 			"/>
			<polygon fill="#FFFFFF" points="23.529,46.83 28.529,38.169 41.154,44.303 35.153,54.695 			"/>
			<polygon fill="#FFFFFF" points="20,70 20,60 34,58.999 34,71 			"/>
			<polygon fill="#FFFFFF" points="28.529,91.83 23.529,83.17 35.153,75.303 41.153,85.695 			"/>
			<polygon fill="#FFFFFF" points="46.831,106.471 38.17,101.471 44.302,88.846 54.696,94.847 			"/>
			<polygon fill="#FFFFFF" points="70,110 60,110 58.999,96 71,96 			"/>
			<polygon fill="#FFFFFF" points="91.83,101.471 83.17,106.471 75.303,94.848 85.695,88.848 			"/>
			<polygon fill="#FFFFFF" points="106.471,83.17 101.471,91.83 88.846,85.697 94.848,75.305 			"/>
			<polygon fill="#FFFFFF" points="110,60 110,70 96,71.002 96,59 			"/>
			<polygon fill="#FFFFFF" points="101.471,38.17 106.471,46.83 94.848,54.698 88.848,44.304 			"/>
			<polygon fill="#FFFFFF" points="83.17,23.529 91.83,28.529 85.699,41.154 75.305,35.153 			"/>
		</g>
	</g>
</g>
</svg>
