<?xml version="1.0" encoding="utf-8"?>
<!-- Generator: Adobe Illustrator 16.0.3, SVG Export Plug-In . SVG Version: 6.00 Build 0)  -->
<!DOCTYPE svg PUBLIC "-//W3C//DTD SVG 1.1//EN" "http://www.w3.org/Graphics/SVG/1.1/DTD/svg11.dtd">
<svg version="1.1" id="Layer_1" xmlns="http://www.w3.org/2000/svg" xmlns:xlink="http://www.w3.org/1999/xlink" x="0px" y="0px"
	 width="128px" height="128px" viewBox="0 0 128 128" enable-background="new 0 0 128 128" xml:space="preserve">
<g>
	<path fill="#B5B5B5" d="M92.502,25H35.151v9.861h5.005v-4.855h52.346v67.989H40.156v-5.066h-5.005v5.066
		c0,2.764,2.24,5.006,5.005,5.006h57.352V30.005C97.508,27.241,95.266,25,92.502,25z"/>
	<g>
		<path fill="#B5B5B5" d="M43.263,40.189c0,0.922-0.794,1.669-1.773,1.669h-7.715c-0.98,0-1.774-0.747-1.774-1.669l0,0
			c0-0.922,0.794-1.669,1.774-1.669h7.715C42.468,38.52,43.263,39.267,43.263,40.189L43.263,40.189z"/>
		<path fill="#B5B5B5" d="M43.263,47c0,0.92-0.794,1.667-1.773,1.667h-7.715C32.794,48.667,32,47.921,32,47l0,0
			c0-0.924,0.794-1.67,1.774-1.67h7.715C42.468,45.331,43.263,46.077,43.263,47L43.263,47z"/>
		<path fill="#B5B5B5" d="M43.263,53.809c0,0.922-0.794,1.67-1.773,1.67h-7.715c-0.98,0-1.774-0.748-1.774-1.67l0,0
			c0-0.921,0.794-1.667,1.774-1.667h7.715C42.468,52.142,43.263,52.888,43.263,53.809L43.263,53.809z"/>
		<path fill="#B5B5B5" d="M43.263,60.619c0,0.923-0.794,1.668-1.773,1.668h-7.715c-0.98,0-1.774-0.746-1.774-1.668l0,0
			c0-0.92,0.794-1.669,1.774-1.669h7.715C42.468,58.95,43.263,59.699,43.263,60.619L43.263,60.619z"/>
		<path fill="#B5B5B5" d="M43.263,67.43c0,0.923-0.794,1.668-1.773,1.668h-7.715c-0.98,0-1.774-0.745-1.774-1.668l0,0
			c0-0.922,0.794-1.669,1.774-1.669h7.715C42.468,65.761,43.263,66.508,43.263,67.43L43.263,67.43z"/>
		<path fill="#B5B5B5" d="M43.263,74.24c0,0.922-0.794,1.668-1.773,1.668h-7.715c-0.98,0-1.774-0.746-1.774-1.668l0,0
			c0-0.922,0.794-1.668,1.774-1.668h7.715C42.468,72.572,43.263,73.318,43.263,74.24L43.263,74.24z"/>
		<path fill="#B5B5B5" d="M43.263,81.049c0,0.924-0.794,1.669-1.773,1.669h-7.715c-0.98,0-1.774-0.745-1.774-1.669l0,0
			c0-0.92,0.794-1.668,1.774-1.668h7.715C42.468,79.381,43.263,80.129,43.263,81.049L43.263,81.049z"/>
		<path fill="#B5B5B5" d="M43.263,87.861c0,0.921-0.794,1.668-1.773,1.668h-7.715c-0.98,0-1.774-0.747-1.774-1.668l0,0
			c0-0.924,0.794-1.669,1.774-1.669h7.715C42.468,86.192,43.263,86.938,43.263,87.861L43.263,87.861z"/>
	</g>
</g>
</svg>
