<?xml version="1.0" encoding="utf-8"?>
<!-- Generator: Adobe Illustrator 16.0.3, SVG Export Plug-In . SVG Version: 6.00 Build 0)  -->
<!DOCTYPE svg PUBLIC "-//W3C//DTD SVG 1.1//EN" "http://www.w3.org/Graphics/SVG/1.1/DTD/svg11.dtd">
<svg version="1.1" id="Layer_1" xmlns="http://www.w3.org/2000/svg" xmlns:xlink="http://www.w3.org/1999/xlink" x="0px" y="0px"
	 width="256px" height="256px" viewBox="0 0 256 256" enable-background="new 0 0 256 256" xml:space="preserve">
<g>
	<path fill="#FFFFFF" d="M189.99,43H63.849v21.687h11.009V54.009H189.99v149.536H74.857V192.4H63.849v11.145
		c0,6.078,4.928,11.008,11.009,11.008H201V54.009C201,47.927,196.068,43,189.99,43z"/>
	<g>
		<path fill="#FFFFFF" d="M81.691,76.407c0,2.027-1.746,3.67-3.899,3.67H60.821c-2.154,0-3.899-1.643-3.899-3.67l0,0
			c0-2.028,1.746-3.67,3.899-3.67h16.971C79.946,72.737,81.691,74.378,81.691,76.407L81.691,76.407z"/>
		<path fill="#FFFFFF" d="M81.691,91.385c0,2.026-1.746,3.67-3.899,3.67H60.821c-2.154,0-3.899-1.644-3.899-3.67l0,0
			c0-2.028,1.746-3.67,3.899-3.67h16.971C79.946,87.715,81.691,89.357,81.691,91.385L81.691,91.385z"/>
		<path fill="#FFFFFF" d="M81.691,106.364c0,2.025-1.746,3.669-3.899,3.669H60.821c-2.154,0-3.899-1.644-3.899-3.669l0,0
			c0-2.027,1.746-3.67,3.899-3.67h16.971C79.946,102.694,81.691,104.336,81.691,106.364L81.691,106.364z"/>
		<path fill="#FFFFFF" d="M81.691,121.34c0,2.029-1.746,3.67-3.899,3.67H60.821c-2.154,0-3.899-1.641-3.899-3.67l0,0
			c0-2.023,1.746-3.67,3.899-3.67h16.971C79.946,117.67,81.691,119.317,81.691,121.34L81.691,121.34z"/>
		<path fill="#FFFFFF" d="M81.691,136.32c0,2.027-1.746,3.67-3.899,3.67H60.821c-2.154,0-3.899-1.643-3.899-3.67l0,0
			c0-2.027,1.746-3.67,3.899-3.67h16.971C79.946,132.65,81.691,134.293,81.691,136.32L81.691,136.32z"/>
		<path fill="#FFFFFF" d="M81.691,151.299c0,2.025-1.746,3.67-3.899,3.67H60.821c-2.154,0-3.899-1.645-3.899-3.67l0,0
			c0-2.029,1.746-3.668,3.899-3.668h16.971C79.946,147.631,81.691,149.27,81.691,151.299L81.691,151.299z"/>
		<path fill="#FFFFFF" d="M81.691,166.273c0,2.029-1.746,3.67-3.899,3.67H60.821c-2.154,0-3.899-1.641-3.899-3.67l0,0
			c0-2.023,1.746-3.668,3.899-3.668h16.971C79.946,162.605,81.691,164.25,81.691,166.273L81.691,166.273z"/>
		<path fill="#FFFFFF" d="M81.691,181.256c0,2.027-1.746,3.67-3.899,3.67H60.821c-2.154,0-3.899-1.643-3.899-3.67l0,0
			c0-2.029,1.746-3.67,3.899-3.67h16.971C79.946,177.586,81.691,179.227,81.691,181.256L81.691,181.256z"/>
	</g>
</g>
</svg>
