<?xml version="1.0" encoding="utf-8"?>
<!-- Generator: Adobe Illustrator 16.0.3, SVG Export Plug-In . SVG Version: 6.00 Build 0)  -->
<!DOCTYPE svg PUBLIC "-//W3C//DTD SVG 1.1//EN" "http://www.w3.org/Graphics/SVG/1.1/DTD/svg11.dtd">
<svg version="1.1" id="Layer_1" xmlns="http://www.w3.org/2000/svg" xmlns:xlink="http://www.w3.org/1999/xlink" x="0px" y="0px"
	 width="128px" height="128px" viewBox="0 0 128 128" enable-background="new 0 0 128 128" xml:space="preserve">
<g>
	<g>
		<circle fill-rule="evenodd" clip-rule="evenodd" fill="#B5B5B5" cx="82.098" cy="56.135" r="5"/>
		<polygon fill-rule="evenodd" clip-rule="evenodd" fill="#B5B5B5" points="85.088,49.64 79.107,49.64 81.35,34.688 82.844,34.688 
					"/>
		<polygon fill-rule="evenodd" clip-rule="evenodd" fill="#B5B5B5" points="75.227,59.009 79.453,63.237 70.469,69.055 
			69.412,67.996 		"/>
	</g>
	<g>
		<path fill-rule="evenodd" clip-rule="evenodd" fill="#B5B5B5" d="M103.711,35.715l3.057-4.075l-7.436-5.576l-3,4.001
			c-3.402-1.847-7.207-3.05-11.244-3.452V24H89v-8H75v8h4.107v2.613c-9.799,0.974-18.204,6.68-22.903,14.798
			c0.278,0.255,0.553,0.517,0.819,0.785c1.072,1.07,2.018,2.224,2.868,3.432c3.999-8.238,12.45-13.931,22.206-13.931
			c13.604,0,24.67,11.068,24.67,24.669c0,13.604-11.066,24.673-24.67,24.673c-2.494,0-4.902-0.375-7.174-1.068l6.277,6.277
			c0.299,0.01,0.596,0.023,0.896,0.023C98.611,86.271,112,72.883,112,56.366C112,48.354,108.842,41.083,103.711,35.715z"/>
	</g>
	<path fill="#B5B5B5" d="M40.464,37.757c5.154,0.429,10.191,2.609,14.134,6.554c6.696,6.694,8.321,16.536,4.888,24.762l30.088,30.09
		c0.891,0.891,0.891,2.352,0,3.244l-8.926,8.926c-0.445,0.445-1.033,0.668-1.623,0.668c-0.588,0-1.176-0.223-1.621-0.668
		l-30.088-30.09c-2.791,1.166-5.77,1.748-8.745,1.748c-5.798,0-11.593-2.211-16.018-6.633c-3.944-3.943-6.126-8.98-6.554-14.136
		l4.107-4.105l9.909,9.909h0.068l0.014,0.014l0.015-0.014h9.389l6.707-6.708l-0.001-9.389l0.083-0.082l-9.958-9.959L40.464,37.757"
		/>
</g>
</svg>
